<svg xmlns:xlink="http://www.w3.org/1999/xlink" xmlns="http://www.w3.org/2000/svg" viewBox="0 0 256 256" focusable="false" color="var(--token-7bc77d28-260e-4b84-92a3-3084b520b0ce, rgb(255, 255, 255))" style="user-select: none; width: 100%; height: 100%; display: inline-block; fill: var(--token-7bc77d28-260e-4b84-92a3-3084b520b0ce, rgb(255, 255, 255)); color: var(--token-7bc77d28-260e-4b84-92a3-3084b520b0ce, rgb(255, 255, 255)); flex-shrink: 0;" width="256"  height="256" ><g color="var(--token-7bc77d28-260e-4b84-92a3-3084b520b0ce, rgb(255, 255, 255))" weight="regular" fill="#FFFFFF"><path d="M230.6,49.53A15.81,15.81,0,0,0,216,40H40A16,16,0,0,0,28.19,66.76l.08.09L96,139.17V216a16,16,0,0,0,24.87,13.32l32-21.34A16,16,0,0,0,160,194.66V139.17l67.74-72.32.08-.09A15.8,15.8,0,0,0,230.6,49.53ZM40,56h0Zm108.34,72.28A15.92,15.92,0,0,0,144,139.17v55.49L112,216V139.17a15.92,15.92,0,0,0-4.32-10.94L40,56H216Z" fill="#FFFFFF"></path></g></svg>