<svg xmlns:xlink="http://www.w3.org/1999/xlink" xmlns="http://www.w3.org/2000/svg" viewBox="0 0 256 256" focusable="false" color="var(--token-7bc77d28-260e-4b84-92a3-3084b520b0ce, rgb(255, 255, 255))" style="user-select: none; width: 100%; height: 100%; display: inline-block; fill: var(--token-7bc77d28-260e-4b84-92a3-3084b520b0ce, rgb(255, 255, 255)); color: var(--token-7bc77d28-260e-4b84-92a3-3084b520b0ce, rgb(255, 255, 255)); flex-shrink: 0;" width="256"  height="256" ><g color="var(--token-7bc77d28-260e-4b84-92a3-3084b520b0ce, rgb(255, 255, 255))" weight="regular" fill="#FFFFFF"><path d="M117.25,157.92a60,60,0,1,0-66.5,0A95.83,95.83,0,0,0,3.53,195.63a8,8,0,1,0,13.4,8.74,80,80,0,0,1,134.14,0,8,8,0,0,0,13.4-8.74A95.83,95.83,0,0,0,117.25,157.92ZM40,108a44,44,0,1,1,44,44A44.05,44.05,0,0,1,40,108Zm210.14,98.7a8,8,0,0,1-11.07-2.33A79.83,79.83,0,0,0,172,168a8,8,0,0,1,0-16,44,44,0,1,0-16.34-84.87,8,8,0,1,1-5.94-14.85,60,60,0,0,1,55.53,105.64,95.83,95.83,0,0,1,47.22,37.71A8,8,0,0,1,250.14,206.7Z" fill="#FFFFFF"></path></g></svg>