<svg xmlns="http://www.w3.org/2000/svg" fill-rule="evenodd" stroke-linecap="square" stroke-miterlimit="1.5" clip-rule="evenodd" viewBox="0 0 393 281"><g transform="translate(-353.909)"><path fill="none" d="M353.909 0h392.462v280.253H353.909z"/><clipPath id="a"><path d="M353.909 0h392.462v280.253H353.909z"/></clipPath><g clip-path="url(#a)"><path fill="none" stroke="#276678" stroke-width="5.06" d="M353.909 0h328.134v259.144H353.909z" transform="matrix(.98862 0 0 .98842 5.937 3)"/><path fill="#ffd2bb" fill-rule="nonzero" d="M631.97 94.438s-2.273-1.949-4.684-3.135c-.062-.03-.123-.055-.185-.084-1.387-.658-2.8-1.046-3.837-.645-1.547.6.234 3.817.659 4.541l.09.15-.146-.081c-.425-.236-1.758-.997-2.622-1.702-1.036-.846-2.816-2.205-7.256-1.919a4.047 4.047 0 0 1-1.68-.264l-10.445 12.81a13.747 13.747 0 0 0 1.914 1.907l6.498 5.298c5.411 4.413 10.358 7.462 14.91 3.484l1.691 1.379.349.284 1.558 1.271-.066-.378 5.25 1.5 2.184-3.889 4.512-8.038 1.305-2.323 2.476.693-12.067-9.842a14.375 14.375 0 0 0-.408-1.017zm-21.429 12.164c-.346.343-1.081.172-1.643-.384-.558-.551-.73-1.279-.378-1.627.344-.345 1.081-.176 1.64.381.557.555.734 1.284.381 1.63zm4.4-9.886c.346-.343 1.084-.177 1.64.38.558.555.733 1.284.382 1.63-.345.343-1.083.178-1.642-.382-.559-.553-.733-1.28-.38-1.628zm1.694 35.494a7.85 7.85 0 0 1 .471 3.995c-.33 2.326-1.694 4.43-3.8 5.628-.31.176-.628.339-.968.474a7.626 7.626 0 0 1-.619.208 7.604 7.604 0 0 1-4.375-.005 7.816 7.816 0 0 1-3.979-2.756 7.83 7.83 0 0 1-.291-9.138 7.595 7.595 0 0 1 1.266-1.436 7.57 7.57 0 0 1 2.259-1.4c3.115-1.229 6.56-.258 8.658 2.167a7.865 7.865 0 0 1 1.378 2.263zm57.387 50.983a7.97 7.97 0 0 1-.312 1.995 7.925 7.925 0 0 1-.578 1.426 7.79 7.79 0 0 1-6.137 4.152 7.575 7.575 0 0 1-2.887-.273c-2.179-.642-3.85-2.179-4.754-4.099a7.778 7.778 0 0 1-.725-2.761c-.066-.92.02-1.869.298-2.809a7.815 7.815 0 0 1 5.443-5.344 7.583 7.583 0 0 1 4.158.033 7.615 7.615 0 0 1 4.404 3.447 7.799 7.799 0 0 1 1.09 4.233z"/><path fill="#276678" fill-rule="nonzero" d="M645.555 56.867v-8.071a.905.905 0 1 1 1.812 0v8.071c0 .5-.405.904-.906.904a.905.905 0 0 1-.906-.904zm.906 25.109a.905.905 0 0 0 .906-.904v-8.071a.905.905 0 1 0-1.812 0v8.071c0 .498.406.904.906.904zm7.16-17.043c0 .5.406.905.907.905h8.071a.905.905 0 0 0 0-1.81h-8.071a.906.906 0 0 0-.907.905zm-23.297.906h8.07a.905.905 0 0 0 0-1.81h-8.07a.905.905 0 1 0 0 1.81zm22.481-5.969 5.707-5.707a.904.904 0 0 0 0-1.281.903.903 0 0 0-1.279 0l-5.708 5.707a.907.907 0 0 0 0 1.281.908.908 0 0 0 1.28 0zm-12.688 10.127-5.709 5.706a.905.905 0 1 0 1.281 1.282l5.708-5.707a.905.905 0 1 0-1.28-1.281zm17.115 6.988a.905.905 0 1 0 1.279-1.282l-5.707-5.706a.906.906 0 0 0-1.28 1.281l5.708 5.707zM640.117 59.87a.906.906 0 0 0 1.28-1.281l-5.708-5.707a.905.905 0 1 0-1.281 1.281l5.709 5.707zm90.12 156.012c-.5 0-.906.403-.906.905v8.071a.905.905 0 0 0 1.812 0v-8.071a.904.904 0 0 0-.906-.905zm0 24.205c-.5 0-.906.405-.906.905v8.071a.905.905 0 0 0 1.812 0v-8.071c0-.5-.405-.905-.906-.905zm16.139-8.067h-8.071a.905.905 0 1 0 0 1.809h8.071a.904.904 0 1 0 0-1.809zm-23.301.904c0-.5-.405-.904-.904-.904h-8.07a.904.904 0 1 0 0 1.809h8.07a.903.903 0 0 0 .904-.905zm13.506-5.063 5.707-5.707a.902.902 0 0 0 0-1.28.903.903 0 0 0-1.279 0l-5.708 5.707a.906.906 0 0 0 1.28 1.28zm-12.688 10.127-5.709 5.706a.905.905 0 1 0 1.281 1.282l5.708-5.707a.905.905 0 1 0-1.28-1.281zm12.688 0a.906.906 0 0 0-1.28 1.281l5.708 5.707a.905.905 0 1 0 1.279-1.282l-5.707-5.706zm-17.115-17.114a.905.905 0 1 0-1.281 1.28l5.709 5.707a.904.904 0 1 0 1.28-1.28l-5.708-5.707zM469.25 139.605c-.5 0-.906.403-.906.905v8.071a.905.905 0 0 0 1.812 0v-8.071a.904.904 0 0 0-.906-.905zm0 24.204c-.5 0-.906.405-.906.905v8.071a.905.905 0 0 0 1.812 0v-8.071a.906.906 0 0 0-.906-.905zm16.138-8.066h-8.071a.905.905 0 1 0 0 1.809h8.071a.904.904 0 1 0 0-1.809zm-23.3.904c0-.5-.405-.904-.904-.904h-8.07a.904.904 0 1 0 0 1.809h8.07a.905.905 0 0 0 .904-.905zm13.506-5.063 5.707-5.707a.902.902 0 0 0 0-1.28.903.903 0 0 0-1.279 0l-5.708 5.707a.906.906 0 0 0 1.28 1.28zm-12.688 10.127-5.709 5.706a.905.905 0 1 0 1.281 1.282l5.708-5.707a.905.905 0 1 0-1.28-1.281zm12.688 0a.906.906 0 0 0-1.28 1.281l5.708 5.707a.905.905 0 1 0 1.279-1.282l-5.707-5.706zm-17.116-17.115a.905.905 0 1 0-1.281 1.28l5.709 5.707a.904.904 0 1 0 1.28-1.28l-5.708-5.707zm186.241-20.243c.009-.146.021-.293.03-.44.063-.882.15-1.778.261-2.675.546-4.46 1.599-8.947 2.35-11.811a88.497 88.497 0 0 1 .86-3.074l-3.774-1.057-2.476-.693-1.305 2.323-4.512 8.038-2.184 3.889-5.25-1.5.066.378.684 3.872s-3 14 2.75 25c.194.371.396.768.604 1.18 5.278 10.491 14.695 33.73 16.74 38.81.259.641.406 1.01.406 1.01l8.734-3.339a7.886 7.886 0 0 1 .225-3.441 7.815 7.815 0 0 1 5.443-5.344c-5.447-11.911-17.71-39.377-19.45-48.947-.162-.887-.236-1.626-.202-2.179zm-27.614 11.852c-.33 2.326-1.694 4.43-3.8 5.628-.31.176-.628.339-.968.474a7.626 7.626 0 0 1-.619.208l1.849 1.634 1.176 1.04a4.149 4.149 0 0 0 5.857-.36 4.15 4.15 0 0 0-.364-5.856l-3.131-2.768zM599 124.461l5.339 4.719c-.482.429-.91.908-1.266 1.436l-5.152-4.554c-.303.404-.613.805-.951 1.188-4.289 4.852-10.667 7.089-17.062 5.983a18.53 18.53 0 0 1-9.116-4.383 18.434 18.434 0 0 1-6.233-12.753 18.41 18.41 0 0 1 4.606-13.418c4.289-4.854 10.668-7.091 17.063-5.986.979.169 1.936.426 2.868.748a18.55 18.55 0 0 1 6.244 3.634 18.723 18.723 0 0 1 2.232 2.367 18.41 18.41 0 0 1 4.003 10.387A18.39 18.39 0 0 1 599 124.461zm-2.349-.055c.04-.176.117-.356.257-.514.052-.059.112-.097.171-.143a16.387 16.387 0 0 0 2.5-9.797 16.456 16.456 0 0 0-5.563-11.38 16.514 16.514 0 0 0-8.129-3.908c-5.705-.986-11.396 1.01-15.223 5.34a16.412 16.412 0 0 0-4.108 11.969 16.44 16.44 0 0 0 5.561 11.378 16.531 16.531 0 0 0 8.133 3.911c5.705.986 11.396-1.009 15.222-5.337.427-.485.814-.996 1.179-1.519z"/><path fill="#072933" fill-rule="nonzero" d="M679.007 152.096c-.161.115-.32.233-.476.36l-.45-.82c.307.155.615.308.926.46zm3.945 69.225h22.538a6.408 6.408 0 0 0 0-12.816h-6.355v-48.029c12.958-1.508 23.016-12.515 23.016-25.876 0-14.392-11.666-26.059-26.06-26.059h-14.522c-.425 0-.847.012-1.266.032a25.937 25.937 0 0 0-14.977 5.655c4.981 3.286 10.248 7.562 14.977 12.192.679.665 1.346 1.336 2 2.013 3.328 3.446 6.303 7.031 8.609 10.508 3.859 5.818 5.844 11.332 4.443 15.377a2.64 2.64 0 0 1-.977 1.306c-.379 1.406-1.106 3.129-2.086 5.033a55.712 55.712 0 0 1-1.381 2.514v11.865l2.188 3.992-.481.105c3.365 6.515 6.463 16.03 1.978 24.245-.859 1.574-2.146 2.872-3.685 3.954v1.172h-1.914c-2.069 1.118-4.402 1.957-6.695 2.623-.673.195-1.342.377-2 .545-4.4 1.128-8.278 1.72-9.268 2.599a38.841 38.841 0 0 0-3.354 1.591c.771 1.603 1.437 3.416 1.958 5.458h7.834v37.017l-5.229 1.649-1.452.458a89.174 89.174 0 0 1-.178 4.038l6.858-2.163v7.239a5.45 5.45 0 0 1 5.481-.288v-6.145l32.458 10.237a5.463 5.463 0 0 1 1.873-3.389l-34.331-10.829v-37.823zm-41.961 48.525a5.47 5.47 0 0 1 2.003 3.348l19.459-6.137-.692-3.763-20.77 6.552zm12.017-54.142c-.332-.987-.682-2.089-1.062-3.354-.026-.089-.039-.179-.063-.269-.33.082-.627.168-.86.269-10.907 2.181-17.716 4.882-22.547 6.474.213.777.405 1.589.572 2.438.271.035.547.06.828.06h24.164l-1.032-5.618z"/><path fill="#276678" fill-rule="nonzero" d="M726.315 274.15a5.483 5.483 0 0 1-10.965 0c0-.268.025-.53.063-.788a5.463 5.463 0 0 1 1.873-3.389 5.457 5.457 0 0 1 3.548-1.306 5.484 5.484 0 0 1 5.481 5.483zm-85.324-4.304a5.45 5.45 0 0 0-3.389-1.178 5.483 5.483 0 0 0 0 10.964 5.48 5.48 0 0 0 5.48-5.482c0-.327-.034-.645-.089-.956a5.46 5.46 0 0 0-2.002-3.348zm41.964-.575a5.45 5.45 0 0 0-5.481.288 5.472 5.472 0 0 0-2.493 4.592 5.483 5.483 0 0 0 10.964 0 5.478 5.478 0 0 0-2.99-4.88z"/><path fill="#1787a7" fill-rule="nonzero" d="M629.793 257.987c-.118 3.198-.425 7.939-.917 9.724l1.201 10.25-20.708.365s-4.686.192-4.639-2.119c.07-3.555 9.145-2.617 12.354-3.966 1.512-.634 4.855-4.41 4.855-4.41l-1.454-7.844-.37-2-8.812-47.544-.01-.016c-6.407-10.253 33.962-22.428 33.962-22.428l.662-.216-16.356-36.16c-8.9 9.952-19.618 17.771-26.849 16.209-1.533-.074-2.677-.474-3.008-1.17-1.972-4.145-.214-17.232 3.659-26.909a7.83 7.83 0 0 0 3.979 2.756 7.604 7.604 0 0 0 4.375.005l1.849 1.634 1.176 1.04a4.149 4.149 0 0 0 5.857-.36 4.15 4.15 0 0 0-.364-5.856l-3.131-2.767a7.839 7.839 0 0 0-1.85-6.259c1.933-2.806 4.038-5.753 5.929-8.159.156-.219.326-.427.502-.631 1.342-1.671 2.554-3.027 3.48-3.795a12.237 12.237 0 0 1 1.712-1.185l.349.284 1.558 1.271.684 3.872s-3 14 2.75 25c.194.371.396.768.604 1.18 5.278 10.491 14.695 33.73 16.74 38.81.259.641.406 1.01.406 1.01l8.734-3.339c.115.743.336 1.459.652 2.129.904 1.92 2.575 3.457 4.754 4.099a7.573 7.573 0 0 0 2.887.273 7.794 7.794 0 0 0 6.137-4.152c.233-.447.43-.923.578-1.426a7.97 7.97 0 0 0 .312-1.995 7.818 7.818 0 0 0-1.089-4.233 7.615 7.615 0 0 0-4.404-3.447 7.583 7.583 0 0 0-4.158-.033c-5.447-11.911-17.71-39.377-19.45-48.947-.162-.887-.235-1.626-.202-2.179.009-.146.021-.293.03-.44.063-.882.15-1.778.261-2.675.546-4.46 1.599-8.947 2.35-11.811.39-1.488.697-2.533.811-2.912 1.643.271 3.219.799 4.606 1.621 3.486.817 7.893 3.022 12.55 6.094 4.981 3.286 10.248 7.562 14.977 12.192.679.665 1.346 1.336 2 2.013 3.328 3.446 6.303 7.031 8.609 10.508 3.859 5.818 5.844 11.332 4.443 15.377a2.64 2.64 0 0 1-.977 1.306c-.379 1.406-1.106 3.129-2.086 5.033a55.712 55.712 0 0 1-1.381 2.514 80.036 80.036 0 0 1-3.506 5.47l3.506 6.395 2.188 3.992-.481.104c3.365 6.515 6.463 16.03 1.978 24.245-.859 1.574-2.146 2.872-3.685 3.954-.602.424-1.245.811-1.914 1.172-2.069 1.118-4.402 1.957-6.695 2.623-.673.195-1.342.377-2 .545-4.4 1.128-8.278 1.72-9.268 2.599a38.841 38.841 0 0 0-3.354 1.591c.771 1.603 1.437 3.416 1.958 5.458.975 3.823 1.437 8.459 1.092 14.096-.297 4.891.162 14.465.1 22.57l-.028 2-.01.458a89.174 89.174 0 0 1-.178 4.038c-.146 2.086-.375 3.866-.729 5.15l1.201 10.25-20.708.366s-4.687.192-4.639-2.119c.071-3.556 9.144-2.617 12.354-3.966 1.511-.634 4.854-4.411 4.854-4.411l-.496-2.696-.692-3.763-.975-5.307m17.296-106.351.45.82c.155-.126.314-.245.476-.36a79.789 79.789 0 0 1-.926-.46zm-48.288 106.351h30.992l-6.744-36.666-1.033-5.617c-.332-.987-.682-2.089-1.062-3.354-.026-.089-.039-.179-.063-.269-.33.082-.627.168-.86.269-10.907 2.181-17.716 4.882-22.547 6.474.213.777.405 1.589.572 2.438.68 3.443.963 7.481.673 12.233m-14.78-136.779c-.354.348-.18 1.074.38 1.628.559.56 1.297.725 1.642.382.352-.346.176-1.075-.382-1.63-.556-.556-1.294-.722-1.64-.38zm-6.421 7.875c-.353.348-.18 1.076.378 1.627.562.556 1.297.727 1.643.384.354-.347.176-1.075-.381-1.63-.559-.556-1.296-.725-1.64-.381zM486.312 54.997H384.317v4.5h101.995v-4.5zm0 19.499H384.317v4.5h101.995v-4.5zm0 19.499H384.317v4.5h101.995v-4.5zm0 19.499H384.317v4.5h101.995v-4.5zM384.317 230.488h13.606V128.494h-13.606v101.994zm41.07 0v-71.996h-13.608v71.996h13.608zm28.962 0v-49.497h-13.607v49.497h13.607zm25.963-.001V200.49h-13.606v29.997h13.606zm106.495-67.495h-82.496v4.5h82.496v-4.5zm0 19.499h-82.496v4.5h82.496v-4.5zm0 19.499h-82.496v4.5h82.496v-4.5zm-82.496 23.999h82.496v-4.5h-82.496v4.5zm4.478-134.107c0 16.538 13.406 29.944 29.944 29.944 16.537 0 29.944-13.406 29.944-29.944a29.8 29.8 0 0 0-3.687-14.398l-26.258 14.398V61.939c-16.537 0-29.943 13.406-29.943 29.943zm35.389-39.47v29.943l26.258-14.398c-5.093-9.265-14.941-15.545-26.258-15.545z"/><path fill="#276678" d="M353.91 0h328.395v28.58H353.91z"/><path fill="#072933" fill-rule="nonzero" d="M623.264 90.574c1.037-.402 2.45-.013 3.837.645.062.029.123.054.185.084 2.41 1.187 4.684 3.135 4.684 3.135-.852-1.89.175-2.983-2.25-6.617-5.081-7.625-12.346-10.648-12.346-10.648-6.741-1.729-9.096 1.86-11.517 5.734 0 0-4.346.668-9.544 1.913-7.782 1.859-9.096 8.247-7.218 12.621a18.55 18.55 0 0 1 6.244 3.634 18.723 18.723 0 0 1 2.232 2.367c2.378.589 4.293.667 4.293.667l10.445-12.81a4.047 4.047 0 0 0 1.68.264c4.439-.286 6.22 1.073 7.256 1.919.864.705 2.197 1.466 2.622 1.702l.146.081-.09-.15c-.424-.724-2.205-3.941-.659-4.541z"/></g></g></svg>