<svg xmlns="http://www.w3.org/2000/svg" fill-rule="evenodd" stroke-linejoin="round" stroke-miterlimit="2" clip-rule="evenodd" viewBox="0 0 313 278"><g transform="translate(-141.516 -159.128)"><path fill="none" d="M141.516 159.128h312.249v277.025H141.516z"/><clipPath id="a"><path d="M141.516 159.128h312.249v277.025H141.516z"/></clipPath><g fill-rule="nonzero" clip-path="url(#a)"><path fill="#1787a7" d="m425.194 207.205-3.772-.022a5.133 5.133 0 0 0-5.128-4.902h-15.812a5.134 5.134 0 0 0-5.134 5.134v3.768c0 .16.009.315.022.47a5.227 5.227 0 0 0-.022.47v3.768c0 .082.002.163.006.244a4.936 4.936 0 0 0-.006.244v3.768a5.135 5.135 0 0 0 5.134 5.134h15.812c.407 0 .803-.049 1.184-.139l3.355.02c2.939.018 5.828-2.182 6.453-4.913l2.099-8.067c.624-2.73-1.252-4.96-4.191-4.977zm-236.712 18.076h15.812c.407 0 .803-.049 1.184-.139l3.355.02c2.939.018 5.828-2.182 6.453-4.913l2.099-8.067c.625-2.73-1.251-4.959-4.19-4.977l-3.772-.022a5.133 5.133 0 0 0-5.128-4.902h-15.812a5.134 5.134 0 0 0-5.134 5.134v3.768c0 .16.009.315.022.47a5.227 5.227 0 0 0-.022.47v3.768c0 .082.002.163.006.244a4.936 4.936 0 0 0-.006.244v3.768a5.133 5.133 0 0 0 5.133 5.134zm102.866-49v7l19-1s-1-18-8-22-19 5-19 5 8 4 8 11zm70.084 21c7.963-1.259 11.693-15.788 11.693-15.788s-8.744 1.885-13.123-3.576l-4.379-5.46-14.197 12.667s12.042 13.416 20.006 12.157zm-118.743-1.639 6.865 1.368 2.732-18.83s-17.849-2.536-23.14 3.547 1.191 19.611 1.191 19.611 5.487-7.064 12.352-5.696z"/><path fill="#276678" d="M175.051 245.281h142.594v34h-88.736c-.449-2.405-1.835-5.054-5.425-6.653-1.906-.849-6.294.427-9.895 1.764-1.854-.079-3.577.246-4.979 2.052l-.235.107-.14-.287s.021.128.043.331l-.157.073.17.03.014.164a9.754 9.754 0 0 0-.797 1.473s-.096.341-.206.944h-32.251v-33.998zm147 34h10.594v-34h-10.594v34zm17 0h10.594v-34h-10.594v34zm17 0h10.594v-34h-10.594v34z"/><path fill="#1787a7" d="M446.655 354.52c-5.541 7.648-3.194 6.314-8.57 19.18-3.666 8.772-11.636 10.826-16.336 11.246a239.425 239.425 0 0 0 7.531-11.168c.043-.008.081-.01.126-.032 1.905-.965 3.872-1.823 5.499-3.239.476-.417-.133-1.188-.61-.772-1.207 1.05-2.604 1.78-4.021 2.482 5.03-8.024 9.636-16.316 13.925-24.76.284-.565-.635-.912-.918-.353-3.623 7.131-7.479 14.148-11.62 20.99.202-3.12.668-6.219.521-9.354-.028-.632-1-.479-.972.148.153 3.232-.391 6.434-.563 9.654-.018.298.195.475.426.517-3.284 5.37-6.743 10.631-10.433 15.737-.34 1.067-.869 2.102-1.328 3.04-1.032 2.11-2.191 4.208-2.911 6.452l-3.025.064c-.001-.007-.006-.012-.007-.02-1.491-9.756.816-19.289 1.654-28.965-.17.084-.267.125-.267.125s-.818-.452-1.994-1.347c-.093-6.394.105-12.78.514-19.157.211.1.485.076.645-.178 1.708-2.733 3.104-5.665 5.087-8.222.385-.495-.322-1.183-.71-.68-1.923 2.48-3.322 5.282-4.95 7.953.544-7.977 1.422-15.935 2.559-23.854.089-.62-.862-.866-.953-.239-1.346 9.373-2.344 18.806-2.841 28.264-.757-1.392-1.481-2.79-1.862-4.342-.153-.616-1.095-.334-.943.281.517 2.091 1.631 3.927 2.638 5.812.022.042.054.068.082.098a240.017 240.017 0 0 0-.257 13.47c-3.604-3.047-8.944-9.307-6.9-18.594 2.997-13.618 4.148-11.179 4.015-20.623-.135-9.445.082-18.486 6.241-18.616 6.158-.13 7.838 10.484 5.558 19.158-2.279 8.672 2.213 14.504 2.739 23.383.558 9.398-3.834 14.146-6.574 16.175-.717 9.653-3.07 19.177-1.886 28.872.524-1.449 1.207-2.843 1.892-4.225.569-1.144 1.404-2.484 1.921-3.85a14.045 14.045 0 0 1-.701-.045s-5.506-8.632 2.933-19.248c5.535-6.962 12.563-9.149 15.684-17.557 3.121-8.408 10.595-16.126 15.561-12.479 4.958 3.645-.06 11.166-5.599 18.817zm-44.126 19.69a208.307 208.307 0 0 1 4.87 10.468c1.77-3.636 3.785-10.397-1.037-16.97-5.081-6.927-6.541-7.682-8.136-10.323-.625-1.035-1.271-2.358-2.162-4.456-.235-.554-.472-1.103-.71-1.648-2.958-6.795-6.125-12.667-10.638-10.784-3.354 1.4-3.28 6.057-1.343 10.784.41 1.002.912 2.004 1.476 2.982a25.613 25.613 0 0 0 2.151 3.182 16.299 16.299 0 0 1 1.815 2.836c2.598 5.12 1.896 10.423 4.145 16.448 3.083 8.261 8.872 10.126 11.49 10.545.857 2.36 1.542 4.775 2.124 7.222l1.778-.038c-.602-2.566-1.318-5.09-2.208-7.563.196-.295.457-.715.752-1.248-2.145-5.044-4.516-9.985-7.045-14.844-.131.15-.355.23-.566.084-2.289-1.55-4.4-3.365-6.842-4.683-.474-.254-.157-1.038.321-.778 2.368 1.28 4.438 2.991 6.639 4.518a262.182 262.182 0 0 0-5.362-9.664 294.963 294.963 0 0 0-4.915-8.15c-.286-.459.376-.978.663-.522a298.325 298.325 0 0 1 5.212 8.672c2.382 4.11 4.672 8.271 6.817 12.506.111-1.35.192-2.7-.045-4.05-.094-.536.742-.642.838-.106.319 1.82.081 3.646-.053 5.47-.003.044-.019.075-.029.11z"/><path fill="#ffd2bb" d="m220.789 303.434-.053-4.432 2.243-.026c4.277-.05 5.493-2.842 5.776-6.695.054-.73.075-1.5.076-2.297 0-.248 0-.495-.003-.748l-.035-2.956-.024-2.066c-.064.271-.112.427-.112.427s-.89-2.816-3.388-4.587a7.57 7.57 0 0 0-1.201-.694c-.055-.025-.105-.055-.162-.079a.212.212 0 0 1-.021-.01c-1.975-.848-4.777-1.229-6.891-1.4.138.445.258.923.336 1.41.203 1.25.129 2.544-.667 3.436-1.336 1.494-1.808 2.667-1.974 3.564-.09.478-.096.882-.092 1.205.006.502-.061 1.121-.124 1.588-.034.252-.065.454-.085.571l-.019.114s-.013-.047-.029-.114c-.124-.47-.66-2.406-1.314-3.364-.29-.425-.602-.66-.911-.478-.178.105-.329.277-.47.478-.888 1.271-1.085 4.217-1.116 6-.016.85.005 1.44.005 1.44.11.215.247.415.372.621l.096 8.087-1.13 1.004c.268.29.665.701 1.156 1.2.554.563 1.242 1.253 2.033 2.04a778.927 778.927 0 0 0 3.734 3.682 1837.92 1837.92 0 0 0 4.059 3.965h6.045l-1.161 4.744 3.651-14.918-.416-.713h-8.184v.001zm4.693-17.153c-.006-.474.194-.868.494-.904.335-.039.649.367.709.904a.019.019 0 0 1 .002.007c.06.544-.166 1.017-.496 1.058-.335.04-.65-.37-.711-.914-.006-.053.003-.1.002-.15zm-6.463-.82c.315-.038.606.326.69.82.005.031.018.057.021.09.058.545-.167 1.017-.496 1.057-.336.04-.649-.37-.714-.912-.009-.082 0-.158.004-.235.019-.436.215-.786.495-.82zm53.225 65.82h-25.473c-6.256-2.636-12.002-5.93-14.139-8.303a7.854 7.854 0 0 1-.093-.106c-.047-.055-.103-.11-.146-.165l.284-.16 5.596-3.163 5.374-3.037h-.001c1.888 1.021 4.327 2.607 6.606 4.166l.324.222.509.351 11.997-3.4-.021-.035c3.18 3.496 7.409 10.65 9.183 13.63z"/><path fill="#1787a7" d="M218.52 286.516c-.009-.082 0-.158.004-.235.02-.436.215-.786.495-.82.315-.038.606.326.69.82.005.031.018.057.021.09.058.545-.167 1.017-.496 1.057-.336.04-.65-.37-.714-.912zm7.671.83c.33-.042.556-.514.496-1.058a.019.019 0 0 0-.002-.007c-.06-.537-.374-.943-.709-.904-.3.036-.5.43-.494.904.001.051-.008.1-.002.152.06.543.376.952.711.913zm36.871 50.305c-.263-.412-5.731-8.972-10.862-17.126-3.779-6.005-7.37-11.78-8.549-13.894-2.818-5.054-14.702-3.24-14.702-3.24l.025.043.416.713-3.651 14.918a2826.437 2826.437 0 0 1-4.884-4.744 1837.92 1837.92 0 0 1-4.059-3.965 778.927 778.927 0 0 1-3.734-3.682 245.886 245.886 0 0 1-2.033-2.04c-.491-.5-.889-.91-1.156-1.2 0 0-14.347 6.855-13.26 10.887 2.41 8.931 12.565 23.223 12.646 25.393.04 1.091-.17 2.573-.53 4.251a61.805 61.805 0 0 1-1.056 4.118c-.307 1.061-.64 2.138-.982 3.198h26.972c-.656-3.14-1.147-6.29-1.03-8.302a7.854 7.854 0 0 1-.093-.106c-.047-.055-.103-.11-.146-.165l.284-.16 5.596-3.163 5.374-3.037h-.001l-.803-.772c-1.051-1.01-3.072-2.955-5.618-5.408 1.097-2.337 2.173-4.8 2.995-7.44l5.559 9.854 4.474 7.932.324.222.509.351 11.997-3.4-.022-.036z"/><path fill="#072933" d="M433.651 410.168c-.126-5.949-1.281-11.489-3.179-16.18l-14.071.298-3.025.064-5.022.107-1.778.038-9.163.195c-1.696 4.767-2.614 10.351-2.488 16.301.223 10.501 3.647 19.724 8.712 25.266l22.384-.476c4.822-5.752 7.852-15.11 7.63-25.613zM252.264 313.83c.275 1.77.434 4.036-.064 6.694-3.779-6.005-7.37-11.78-8.549-13.894-2.818-5.054-14.702-3.24-14.702-3.24l.025.043h-8.185l-.053-4.432 2.243-.026c4.277-.05 5.493-2.842 5.776-6.695.054-.73.075-1.5.076-2.297a19.673 19.673 0 0 0 1.931 2.297c.317.326.632.653.986.971 4.318 3.873 18.37 6.775 20.516 20.58zm-15.038 16.337c2.546 2.454 4.567 4.397 5.618 5.408a44.41 44.41 0 0 0 2.936-2.994l-5.559-9.854c-.822 2.64-1.898 5.103-2.995 7.44zM206.69 351.28c.343-1.06.676-2.137.982-3.198a87.208 87.208 0 0 0-1.449 3.198h.467zm10.305-73.41c2.113.172 4.916.553 6.891 1.4a.103.103 0 0 1 .021.011c.057.024.107.054.162.08.437.201.836.435 1.201.693 2.498 1.771 3.388 4.587 3.388 4.587s.048-.155.112-.427c.195-.83.541-2.783.139-4.934-.449-2.405-1.835-5.054-5.425-6.653-1.906-.849-6.294.427-9.895 1.764-1.854-.079-3.577.246-4.979 2.052l-.235.107-.14-.287s.021.128.043.331l-.157.073.17.03.014.164a9.754 9.754 0 0 0-.797 1.473s-.096.341-.206.944a22.211 22.211 0 0 0-.235 5.975c-.13.34-.273.68-.429 1.025-.897 1.992-2.257 4.06-4.271 6-.179.172-.337.348-.526.518-4.315 3.873-18.367 6.773-20.514 20.578-.785 5.053-.643 14.138 13.138 24.91 4.507 3.521 9.582 5.101 14.263 5.677.36-1.678.57-3.16.53-4.25-.08-2.17-10.235-16.463-12.646-25.394-1.087-4.03 13.26-10.887 13.26-10.887l1.13-1.004-.096-8.087c-.125-.207-.262-.406-.372-.622 0 0-.021-.589-.005-1.439.031-1.783.229-4.729 1.116-6 .141-.2.292-.373.47-.478.31-.183.621.053.911.478.654.958 1.19 2.894 1.314 3.364l.029.114.019-.114c.02-.117.051-.319.085-.57.063-.468.13-1.086.124-1.589a5.898 5.898 0 0 1 .092-1.205c.166-.897.638-2.07 1.974-3.564.796-.89.87-2.186.667-3.436a10.56 10.56 0 0 0-.335-1.408zm8.744 41.195 1.161-4.744h-6.045c1.576 1.534 3.224 3.136 4.884 4.744z"/><path fill="#1787a7" d="M389.128 305.875a.847.847 0 0 0-.847.846v7.545a.846.846 0 0 0 1.693 0v-7.545a.846.846 0 0 0-.846-.846zm0 22.626a.847.847 0 0 0-.847.846v7.544a.847.847 0 0 0 1.693 0v-7.544a.846.846 0 0 0-.846-.846zm-6.693-6.695a.847.847 0 0 0-.848-.846h-7.543a.847.847 0 1 0 0 1.693h7.543a.848.848 0 0 0 .848-.847zm21.778-.846h-7.545a.847.847 0 1 0 0 1.693h7.545a.847.847 0 1 0 0-1.693zm-25.153-10.418a.843.843 0 0 0-1.196 0 .844.844 0 0 0 0 1.196l5.335 5.335a.847.847 0 0 0 1.197-1.197l-5.336-5.334zm15.998 15.998a.846.846 0 0 0-1.196 1.197l5.335 5.335a.843.843 0 0 0 1.195 0 .845.845 0 0 0 0-1.198l-5.334-5.334zm-11.859 0-5.335 5.333a.847.847 0 0 0 1.196 1.198l5.336-5.335a.847.847 0 0 0 0-1.197.848.848 0 0 0-1.197.001zm11.859-9.467 5.334-5.335a.843.843 0 0 0 0-1.196.841.841 0 0 0-1.195 0l-5.335 5.334a.846.846 0 1 0 1.196 1.197zm-237.094-8.758a.847.847 0 0 0-.847.846v7.545a.846.846 0 0 0 1.693 0v-7.545a.846.846 0 0 0-.846-.846zm0 22.626a.847.847 0 0 0-.847.846v7.544a.847.847 0 0 0 1.693 0v-7.544a.845.845 0 0 0-.846-.846zm-6.693-6.695a.847.847 0 0 0-.848-.846h-7.543a.847.847 0 1 0 0 1.693h7.543a.849.849 0 0 0 .848-.847zm21.778-.847h-7.545a.847.847 0 1 0 0 1.693h7.545a.847.847 0 1 0 0-1.693zm-25.153-10.418a.843.843 0 0 0-1.196 0 .844.844 0 0 0 0 1.196l5.335 5.335a.847.847 0 0 0 1.197-1.197l-5.336-5.334zm15.998 15.998a.846.846 0 0 0-1.196 1.197l5.335 5.335a.843.843 0 0 0 1.195 0 .845.845 0 0 0 0-1.198l-5.334-5.334zm-11.859 0-5.335 5.333a.847.847 0 0 0 1.196 1.198l5.336-5.335a.847.847 0 0 0 0-1.197.848.848 0 0 0-1.197.001zm11.859-9.467 5.334-5.335a.843.843 0 0 0 0-1.196.841.841 0 0 0-1.195 0l-5.335 5.334a.846.846 0 1 0 1.196 1.197zm16.578 45.768h191.754v71H180.472z"/><path fill="#276678" d="M430.348 232.28v60.001H230.763a19.69 19.69 0 0 1-1.931-2.297c0-.248 0-.495-.003-.748l-.035-2.956h195.554v-48h-254v48h36.29c-.897 1.992-2.257 4.06-4.271 6h-38.02v-60h266.001zm-32.122 119v6.104c-.625-1.035-1.271-2.358-2.162-4.456-.235-.554-.472-1.103-.71-1.648h2.872zm-13.377 2.983a25.227 25.227 0 0 1-1.476-2.982h-49.149v-10.448h22.125V295.73h-61v45.103h30.125v10.448H157.473v9h13.377v76h9.623v-71h191.753v71h12.623v-76h3.967a16.299 16.299 0 0 0-1.815-2.836 25.51 25.51 0 0 1-2.152-3.182zm4.277-2.134a296.458 296.458 0 0 1 4.915 8.151h.96a298.325 298.325 0 0 0-5.212-8.672c-.287-.456-.949.063-.663.521z"/></g></g></svg>