<svg xmlns="http://www.w3.org/2000/svg" fill-rule="evenodd" stroke-linejoin="round" stroke-miterlimit="2" clip-rule="evenodd" viewBox="0 0 302 239"><g transform="translate(-836.214 -15.93)"><path fill="none" d="M836.214 15.931h301.707v238.05H836.214z"/><clipPath id="a"><path d="M836.214 15.931h301.707v238.05H836.214z"/></clipPath><g fill-rule="nonzero" clip-path="url(#a)"><path fill="#1787a7" d="M925.295 170.527c-14.209 0-25.727 11.518-25.727 25.728 0 14.207 11.518 25.726 25.727 25.726 14.208 0 25.727-11.52 25.727-25.726-.001-14.211-11.519-25.728-25.727-25.728zm0 44.344c-10.283 0-18.618-8.336-18.618-18.617 0-10.283 8.335-18.62 18.618-18.62 10.282 0 18.618 8.337 18.618 18.62 0 10.28-8.336 18.617-18.618 18.617zm6.97-16.797c0 2.443-1.752 4.563-5.347 5.094v2.558h-2.765v-2.466c-2.305-.161-4.495-.83-5.831-1.75l1.497-3.365c1.429.945 3.458 1.59 5.324 1.59 1.889 0 2.627-.53 2.627-1.314 0-2.558-9.172-.691-9.172-6.682 0-2.536 1.82-4.68 5.554-5.14v-2.535h2.765v2.489c1.705.138 3.388.6 4.678 1.359l-1.406 3.388c-1.544-.83-3.065-1.244-4.471-1.244-1.913 0-2.604.645-2.604 1.452.002 2.465 9.151.622 9.151 6.566z"/><path fill="#072933" d="M925.295 177.635c-10.283 0-18.618 8.336-18.618 18.619 0 10.28 8.335 18.617 18.618 18.617 10.282 0 18.618-8.336 18.618-18.617 0-10.283-8.336-18.62-18.618-18.62zm1.623 25.533v2.558h-2.765v-2.466c-2.305-.161-4.495-.83-5.831-1.75l1.497-3.365c1.429.945 3.458 1.59 5.324 1.59 1.889 0 2.627-.53 2.627-1.314 0-2.558-9.172-.691-9.172-6.682 0-2.536 1.82-4.68 5.554-5.14v-2.535h2.765v2.489c1.705.138 3.388.6 4.678 1.359l-1.406 3.388c-1.544-.83-3.065-1.244-4.471-1.244-1.913 0-2.604.645-2.604 1.452 0 2.466 9.149.623 9.149 6.567.002 2.442-1.75 4.563-5.345 5.093z"/><path fill="#276678" d="M909.522 169.018h2.375v-17.616h-2.375v17.616zm15.436-5.501h2.375v-29.684h-2.375v29.684zm13.654 5.343h2.375v-17.458h-2.375v17.458z"/><path fill="#1787a7" d="M1098.263 156.132c-14.209 0-25.727 11.518-25.727 25.728 0 14.207 11.518 25.726 25.727 25.726 14.208 0 25.727-11.519 25.727-25.726-.001-14.211-11.519-25.728-25.727-25.728zm0 44.344c-10.283 0-18.618-8.336-18.618-18.617 0-10.283 8.335-18.619 18.618-18.619 10.282 0 18.618 8.336 18.618 18.619 0 10.281-8.336 18.617-18.618 18.617zm6.97-16.797c0 2.443-1.752 4.563-5.347 5.094v2.558h-2.765v-2.466c-2.305-.161-4.495-.829-5.831-1.75l1.497-3.365c1.429.945 3.458 1.59 5.324 1.59 1.889 0 2.627-.53 2.627-1.314 0-2.558-9.172-.691-9.172-6.682 0-2.536 1.82-4.679 5.554-5.139v-2.536h2.765v2.489c1.705.138 3.388.6 4.678 1.359l-1.406 3.388c-1.544-.829-3.065-1.244-4.471-1.244-1.913 0-2.604.645-2.604 1.452.002 2.465 9.151.622 9.151 6.566z"/><path fill="#072933" d="M1098.263 163.24c-10.283 0-18.618 8.336-18.618 18.619 0 10.281 8.335 18.617 18.618 18.617 10.282 0 18.618-8.336 18.618-18.617 0-10.283-8.336-18.619-18.618-18.619zm1.623 25.533v2.558h-2.765v-2.466c-2.305-.161-4.495-.829-5.831-1.75l1.497-3.365c1.429.945 3.458 1.59 5.324 1.59 1.889 0 2.627-.53 2.627-1.314 0-2.558-9.172-.691-9.172-6.682 0-2.536 1.82-4.679 5.554-5.139v-2.536h2.765v2.489c1.705.138 3.388.6 4.678 1.359l-1.406 3.388c-1.544-.829-3.065-1.244-4.471-1.244-1.913 0-2.604.645-2.604 1.452 0 2.466 9.149.623 9.149 6.567.002 2.442-1.75 4.563-5.345 5.093z"/><path fill="#276678" d="M1082.49 154.623h2.375v-17.616h-2.375v17.616zm15.436-5.501h2.375v-29.684h-2.375v29.684zm13.654 5.343h2.375v-17.458h-2.375v17.458zM863.775 52.731v12.298c0 .761-.618 1.376-1.381 1.376a1.38 1.38 0 0 1-1.381-1.376V52.731c0-.763.62-1.378 1.381-1.378.762 0 1.381.615 1.381 1.378zm-1.382 35.498a1.38 1.38 0 0 0-1.381 1.379v12.298a1.38 1.38 0 0 0 2.762 0V89.608a1.379 1.379 0 0 0-1.381-1.379zm24.587-12.29h-12.296a1.38 1.38 0 0 0-1.383 1.378c0 .763.62 1.379 1.383 1.379h12.296a1.378 1.378 0 1 0 0-2.757zm-35.498 1.379c0-.763-.618-1.378-1.379-1.378h-12.294a1.379 1.379 0 1 0 0 2.757h12.294a1.38 1.38 0 0 0 1.379-1.379zm20.575-7.714 8.695-8.695a1.375 1.375 0 0 0 0-1.952 1.37 1.37 0 0 0-1.947 0l-8.697 8.695a1.38 1.38 0 0 0 1.949 1.952zm-19.328 15.429-8.699 8.692a1.39 1.39 0 0 0 0 1.953 1.38 1.38 0 0 0 1.952 0l8.697-8.694a1.38 1.38 0 0 0-1.95-1.951zm19.328 0a1.38 1.38 0 0 0-1.95 1.951l8.697 8.694a1.374 1.374 0 0 0 1.947 0 1.376 1.376 0 0 0 0-1.953l-8.694-8.692zm-26.075-26.076a1.377 1.377 0 0 0-1.952 0 1.39 1.39 0 0 0 0 1.952l8.699 8.695a1.38 1.38 0 0 0 1.95-1.952l-8.697-8.695zm168.646 145.402v12.298c0 .76-.618 1.376-1.381 1.376a1.38 1.38 0 0 1-1.381-1.376v-12.298c0-.763.62-1.378 1.381-1.378.762 0 1.381.615 1.381 1.378zm-1.382 35.498a1.38 1.38 0 0 0-1.381 1.379v12.298a1.38 1.38 0 0 0 2.762 0v-12.298a1.379 1.379 0 0 0-1.381-1.38zm24.587-12.29h-12.296a1.38 1.38 0 0 0-1.383 1.378c0 .763.62 1.379 1.383 1.379h12.296a1.378 1.378 0 1 0 0-2.757zm-35.498 1.379c0-.763-.618-1.378-1.379-1.378h-12.294a1.379 1.379 0 1 0 0 2.757h12.294a1.38 1.38 0 0 0 1.379-1.38zm20.575-7.714 8.695-8.695a1.375 1.375 0 0 0 0-1.952 1.37 1.37 0 0 0-1.947 0l-8.697 8.695a1.38 1.38 0 0 0 1.949 1.952zm-19.328 15.429-8.699 8.692a1.39 1.39 0 0 0 0 1.953 1.38 1.38 0 0 0 1.952 0l8.697-8.694a1.38 1.38 0 0 0-1.95-1.951zm19.328 0a1.38 1.38 0 0 0-1.95 1.95l8.697 8.695a1.374 1.374 0 0 0 1.947 0 1.376 1.376 0 0 0 0-1.953l-8.694-8.692zm-26.075-26.076a1.377 1.377 0 0 0-1.952 0 1.39 1.39 0 0 0 0 1.952l8.699 8.695a1.38 1.38 0 0 0 1.95-1.952l-8.697-8.695zm2.52-192.345v12.298c0 .761-.618 1.376-1.381 1.376a1.38 1.38 0 0 1-1.381-1.376V18.24c0-.763.62-1.378 1.381-1.378.762 0 1.381.615 1.381 1.378zm-1.382 35.498a1.38 1.38 0 0 0-1.381 1.379v12.298a1.38 1.38 0 0 0 2.762 0V55.117a1.379 1.379 0 0 0-1.381-1.379zm24.587-12.29h-12.296a1.38 1.38 0 0 0-1.383 1.378c0 .763.62 1.379 1.383 1.379h12.296a1.378 1.378 0 1 0 0-2.757zm-35.498 1.379c0-.763-.618-1.378-1.379-1.378h-12.294a1.379 1.379 0 1 0 0 2.757h12.294a1.38 1.38 0 0 0 1.379-1.379zm20.575-7.714 8.695-8.695a1.375 1.375 0 0 0 0-1.952 1.37 1.37 0 0 0-1.947 0l-8.697 8.695a1.38 1.38 0 0 0 1.949 1.952zm-19.328 15.429-8.699 8.692a1.39 1.39 0 0 0 0 1.953 1.38 1.38 0 0 0 1.952 0l8.697-8.694a1.38 1.38 0 0 0-1.95-1.951zm19.328 0a1.38 1.38 0 0 0-1.95 1.951l8.697 8.694a1.374 1.374 0 0 0 1.947 0 1.376 1.376 0 0 0 0-1.953l-8.694-8.692zm-26.075-26.076a1.377 1.377 0 0 0-1.952 0 1.39 1.39 0 0 0 0 1.952l8.699 8.695a1.38 1.38 0 0 0 1.95-1.952l-8.697-8.695z"/><path fill="#1787a7" d="m1138.135 34.931-26.714 64.113-6.534-8.807-114.104 58.966-57.784-47.494-94.456 47.597-2.115-7.227L936.89 75.891l49.935 39.275 89.515-63.407-5.88-7.925 67.675-8.903z"/></g></g></svg>