<svg xmlns="http://www.w3.org/2000/svg" id="Lag_1" data-name="Lag 1" viewBox="0 0 231.48 41.82"><defs><style>.cls-1{fill:#286779}.cls-2{fill:#1787a8}</style></defs><path d="m64.19 3.77 8.38 26.12 8.35-26.12h11.91v37.54h-9.07v-8.77l.87-17.94-9.07 26.71h-6l-9.1-26.74.87 18v8.77H52.3V3.77zm47.49 38.05A14.35 14.35 0 0 1 101.29 38a13.23 13.23 0 0 1-4-10v-.72a17.21 17.21 0 0 1 1.58-7.55 11.56 11.56 0 0 1 4.63-5.07 14 14 0 0 1 7.22-1.79q5.88 0 9.28 3.65t3.4 10.17v3.37h-17.24a6.24 6.24 0 0 0 2 3.69 6.07 6.07 0 0 0 4.07 1.34 7.81 7.81 0 0 0 6.45-2.89l4 4.7a11.22 11.22 0 0 1-4.61 3.57 15.6 15.6 0 0 1-6.39 1.35zm-1-22.22c-2.55 0-4.06 1.69-4.54 5h8.77V24a4.3 4.3 0 0 0-1.06-3.23 4.19 4.19 0 0 0-3.15-1.17zm26.37-13.12v6.93h4.59v6h-4.59v12.8a3.3 3.3 0 0 0 .56 2.19 3.07 3.07 0 0 0 2.25.62 11.91 11.91 0 0 0 2.16-.16v6.22a15.93 15.93 0 0 1-4.9.74c-3 0-5.19-.7-6.62-2.11s-2.14-3.55-2.14-6.42V19.45h-3.56v-6h3.56V6.48zm24.88 14.8-2.87-.21q-4.09 0-5.26 2.58v17.66h-8.68v-27.9h8.14l.29 3.59c1.46-2.74 3.49-4.1 6.11-4.1a8.32 8.32 0 0 1 2.42.31zM165 6.22a3.88 3.88 0 0 1 1.34-3 5.7 5.7 0 0 1 7 0 3.88 3.88 0 0 1 1.34 3 3.88 3.88 0 0 1-1.34 3 5.7 5.7 0 0 1-7 0 3.88 3.88 0 0 1-1.34-3zm9.23 35.09h-8.71v-27.9h8.71zm16.55-10.39-2.45 2.45v7.94h-8.69V1.68h8.69v21l.87-1.16 6.55-8.15h10.42l-9.77 11.52 10.41 16.42h-9.95zm32.27 2.55a2 2 0 0 0-1.16-1.78 17.81 17.81 0 0 0-4.41-1.39 20.2 20.2 0 0 1-5.36-1.89 9.12 9.12 0 0 1-3.22-2.85 6.81 6.81 0 0 1-1.11-3.84 7.7 7.7 0 0 1 3.21-6.33 13.06 13.06 0 0 1 8.3-2.49 14.45 14.45 0 0 1 8.87 2.5 7.81 7.81 0 0 1 3.31 6.6h-8.71q0-3.34-3.53-3.35a3.56 3.56 0 0 0-2.3.76 2.36 2.36 0 0 0-.93 1.9 2.16 2.16 0 0 0 1.14 1.88 10.75 10.75 0 0 0 3.62 1.19 29.86 29.86 0 0 1 4.37 1.1q6.3 2.18 6.29 7.76a7.31 7.31 0 0 1-3.43 6.19 14.84 14.84 0 0 1-8.78 2.39 15.13 15.13 0 0 1-6.39-1.28 10.71 10.71 0 0 1-4.34-3.54 7.94 7.94 0 0 1-1.58-4.67H215a3.38 3.38 0 0 0 1.28 2.83 5.36 5.36 0 0 0 3.18.89 4.16 4.16 0 0 0 2.66-.73 2.28 2.28 0 0 0 .93-1.85z" class="cls-1"/><rect width="7.59" height="19.69" x="13.97" y="21.65" class="cls-2" rx="3.8"/><rect width="7.59" height="27.43" y="13.91" class="cls-2" rx="3.8"/><rect width="7.59" height="30.45" x="27.95" y="10.89" class="cls-2" rx="3.8"/><path d="M17.87 17.3 2.92 7.34l1.75-2.63 13 8.67 13.07-10.8 2.01 2.43L17.87 17.3z" class="cls-2"/><circle cx="3.8" cy="6.15" r="3.8" class="cls-1"/><circle cx="31.74" cy="3.8" r="3.8" class="cls-1"/><circle cx="17.77" cy="14.69" r="3.8" class="cls-1"/></svg>